<?xml version="1.0" encoding="utf-8"?>
<!-- Generator: Adobe Illustrator 28.0.0, SVG Export Plug-In . SVG Version: 6.00 Build 0)  -->
<svg version="1.1" id="Layer_1" xmlns="http://www.w3.org/2000/svg" xmlns:xlink="http://www.w3.org/1999/xlink" x="0px" y="0px"
	 viewBox="0 0 720 289.2" style="enable-background:new 0 0 720 289.2;" xml:space="preserve">
<style type="text/css">
	.st0{filter:url(#Adobe_OpacityMaskFilter);}
	.st1{mask:url(#SVGID_1_);fill:url(#SVGID_00000156557109844419851590000015724139810905632930_);}
	.st2{filter:url(#Adobe_OpacityMaskFilter_00000103261194150698733620000017818373217706524807_);}
	
		.st3{mask:url(#SVGID_00000117640374578317737960000013314140949862783116_);fill:url(#SVGID_00000179620702197532758710000002466681351620470172_);}
	.st4{fill:url(#SVGID_00000158730999977351528680000014810356431721480087_);}
	.st5{fill:url(#SVGID_00000182526771266443269690000005760848719473458852_);}
	.st6{fill:url(#SVGID_00000082332454404787008300000004731455031450439870_);}
	.st7{fill:url(#SVGID_00000087406468441893215310000001469719545505047217_);}
	.st8{filter:url(#Adobe_OpacityMaskFilter_00000042721234517350988800000006791217592739590034_);}
	
		.st9{mask:url(#SVGID_00000165201939270976714480000017897698469931639976_);fill:url(#SVGID_00000075133588672589114710000002895645741823709074_);}
	.st10{fill:url(#SVGID_00000057127363043326848380000000819210373388546198_);}
	.st11{fill:url(#SVGID_00000063630728613518668970000014759313100272208281_);}
	.st12{fill:url(#SVGID_00000057865213955357168070000018318389226129991595_);}
	.st13{fill:url(#SVGID_00000170989499052162450930000004874649312360587923_);}
	.st14{filter:url(#Adobe_OpacityMaskFilter_00000155855826486813090810000016673203757212895873_);}
	
		.st15{mask:url(#SVGID_00000131351590143950687710000014210670056435939769_);fill:url(#SVGID_00000014599418658629183580000007663774667748417970_);}
</style>
<g>
	<g>
		<linearGradient id="SVGID_1_" gradientUnits="userSpaceOnUse" x1="315.8841" y1="123.4323" x2="454.3332" y2="336.9001">
			<stop  offset="0" style="stop-color:#00E97A"/>
			<stop  offset="1" style="stop-color:#009C4A"/>
		</linearGradient>
		<path style="fill:url(#SVGID_1_);" d="M300.64,155.39v42.23h-20.81V91.58h99.57v20.96h-78.76v24.35h77.06v18.5H300.64z"/>
		
			<linearGradient id="SVGID_00000069382620427503285690000006537625539909024695_" gradientUnits="userSpaceOnUse" x1="380.5063" y1="81.5201" x2="518.9555" y2="294.9879">
			<stop  offset="0" style="stop-color:#00E97A"/>
			<stop  offset="1" style="stop-color:#009C4A"/>
		</linearGradient>
		<path style="fill:url(#SVGID_00000069382620427503285690000006537625539909024695_);" d="M411.67,197.62
			c-9.76,0-16.67-1.64-20.73-4.93c-4.06-3.29-6.09-8.42-6.09-15.41v-9.09c0-7.09,2.08-12.15,6.24-15.18
			c4.16-3.03,10.92-4.55,20.27-4.55h28.67c4.11,0,7.24,0.34,9.4,1c2.16,0.67,4.01,1.41,5.55,2.23v-9.71c0-3.9-1.18-6.47-3.55-7.71
			c-2.36-1.23-6.37-1.85-12.02-1.85h-48.09l2-18.03h48.7c6.78,0,12.33,0.69,16.65,2.08c4.32,1.39,7.68,3.26,10.1,5.63
			c2.41,2.37,4.08,5.14,5.01,8.32c0.92,3.19,1.39,6.58,1.39,10.17v57.03c-2.98,0-5.86-0.95-8.63-2.85
			c-2.77-1.9-4.57-5.32-5.39-10.25c-1.23,3.8-3.6,6.94-7.09,9.4c-3.49,2.47-8.32,3.7-14.49,3.7H411.67z M454.98,163.56
			c-1.75-0.72-3.75-1.28-6.01-1.69c-2.26-0.41-5.29-0.62-9.09-0.62h-25.12c-3.29,0-5.65,0.64-7.09,1.93
			c-1.44,1.29-2.16,3.73-2.16,7.32c0,3.49,0.72,5.91,2.16,7.24c1.44,1.34,3.75,2,6.94,2h25.12c3.7,0,7.01-0.62,9.94-1.85
			c2.93-1.23,4.7-3.6,5.32-7.09V163.56z"/>
		
			<linearGradient id="SVGID_00000070084371201337121550000005898923051039829892_" gradientUnits="userSpaceOnUse" x1="449.0754" y1="37.0481" x2="587.5246" y2="250.516">
			<stop  offset="0" style="stop-color:#00E97A"/>
			<stop  offset="1" style="stop-color:#009C4A"/>
		</linearGradient>
		<path style="fill:url(#SVGID_00000070084371201337121550000005898923051039829892_);" d="M556.4,197.62v-52.56
			c0-4.32-0.82-7.53-2.47-9.63c-1.64-2.1-4.62-3.16-8.94-3.16h-26.82c-2.98,0-5.24,0.64-6.78,1.93c-1.54,1.29-2.72,3.31-3.55,6.09
			v57.34h-20.5v-83.23h19.73v12.02c2.26-4.42,4.88-7.53,7.86-9.32c2.98-1.8,6.94-2.7,11.87-2.7h18.19c6.06,0,11.15,0.67,15.26,2
			c4.11,1.34,7.4,3.39,9.86,6.16c2.47,2.77,4.24,6.24,5.32,10.4c1.08,4.16,1.62,9.07,1.62,14.72v49.94H556.4z"/>
		
			<linearGradient id="SVGID_00000152258257479201001690000009693239732935872389_" gradientUnits="userSpaceOnUse" x1="522.1694" y1="-10.3585" x2="660.6186" y2="203.1093">
			<stop  offset="0" style="stop-color:#00E97A"/>
			<stop  offset="1" style="stop-color:#009C4A"/>
		</linearGradient>
		<path style="fill:url(#SVGID_00000152258257479201001690000009693239732935872389_);" d="M586.14,197.62
			c0.51-2.98,1-5.96,1.46-8.94c0.46-2.98,0.95-5.96,1.46-8.94h57.64c2.88,0,5.01-0.56,6.4-1.69c1.39-1.13,2.08-3.49,2.08-7.09
			c0-3.6-0.69-5.96-2.08-7.09c-1.39-1.13-3.52-1.7-6.4-1.7H616.2c-9.56,0-16.62-1.44-21.19-4.32c-4.57-2.88-6.86-7.86-6.86-14.95
			v-8.94c0-3.8,0.59-6.99,1.77-9.56c1.18-2.57,2.95-4.57,5.32-6.01c2.36-1.44,5.39-2.47,9.09-3.08c3.7-0.62,8.01-0.92,12.95-0.92
			h56.72l-2.93,18.03H618.2c-2.88,0-5.01,0.57-6.4,1.7c-1.39,1.13-2.08,3.44-2.08,6.94c0,3.39,0.69,5.68,2.08,6.86
			c1.39,1.18,3.52,1.77,6.4,1.77h30.52c9.45,0,16.49,1.47,21.12,4.39c4.62,2.93,6.94,7.89,6.94,14.87v9.25
			c0,3.91-0.59,7.09-1.77,9.56c-1.18,2.47-2.95,4.44-5.32,5.93c-2.36,1.49-5.39,2.52-9.09,3.08c-3.7,0.57-8.01,0.85-12.95,0.85
			H586.14z"/>
	</g>
	<defs>
		<filter id="Adobe_OpacityMaskFilter" filterUnits="userSpaceOnUse" x="43.23" y="35.2" width="218.79" height="218.79">
			<feFlood  style="flood-color:white;flood-opacity:1" result="back"/>
			<feBlend  in="SourceGraphic" in2="back" mode="normal"/>
		</filter>
	</defs>
	
		<mask maskUnits="userSpaceOnUse" x="43.23" y="35.2" width="218.79" height="218.79" id="SVGID_00000134958945781345841360000004354571235420577970_">
		<g class="st0">
			<g>
				<path d="M117.63,149.98c1.81-5.49,4.83-10.08,8.99-13.63c1.23-1.05,2.6-1.98,4.05-2.86H93.93v-33.34H75.81v33.34H42.47v18.12
					h33.34v33.35h18.12v-33.35h23.25C117.34,151.07,117.46,150.5,117.63,149.98z"/>
				<path d="M152.08,156.2c2.29-1.52,6.1-2.29,11.44-2.29h40.87c6.65,0,12.2-0.54,16.67-1.64c4.47-1.09,8.06-2.78,10.79-5.07
					c2.72-2.29,4.66-5.15,5.8-8.58c1.14-3.43,1.72-7.49,1.72-12.18v-7.03c0-10.79-2.81-18.66-8.42-23.62
					c-5.61-4.96-15.12-7.44-28.52-7.44h-69.47v22.23h69.47c3.05,0,5.53,0.16,7.44,0.49c1.91,0.33,3.38,0.98,4.41,1.96
					c1.04,0.98,1.72,2.29,2.04,3.92c0.33,1.63,0.49,3.76,0.49,6.37c0,2.29-0.16,4.2-0.49,5.72c-0.33,1.53-1.01,2.78-2.04,3.76
					c-1.04,0.98-2.45,1.66-4.25,2.04c-1.8,0.38-4.17,0.57-7.11,0.57h-39.39c-6.97,0-12.83,0.63-17.57,1.88
					c-4.74,1.25-8.58,3.13-11.52,5.64c-2.94,2.51-5.07,5.75-6.37,9.73c-1.31,3.98-1.96,8.64-1.96,13.98v34.16h141.18v-22.07H148.65
					v-13.73C148.65,160.67,149.79,157.73,152.08,156.2z"/>
			</g>
		</g>
	</mask>
	
		<linearGradient id="SVGID_00000176766274485494896100000007550679978649829016_" gradientUnits="userSpaceOnUse" x1="99.6821" y1="80.2088" x2="220.3005" y2="226.8931">
		<stop  offset="0" style="stop-color:#00E97A"/>
		<stop  offset="0.2452" style="stop-color:#00DB71"/>
		<stop  offset="0.7099" style="stop-color:#00B55A"/>
		<stop  offset="0.9835" style="stop-color:#009C4A"/>
	</linearGradient>
	
		<circle style="mask:url(#SVGID_00000134958945781345841360000004354571235420577970_);fill:url(#SVGID_00000176766274485494896100000007550679978649829016_);" cx="152.63" cy="144.6" r="109.4"/>
</g>
</svg>
