<svg width="97" height="71" viewBox="0 0 97 71" fill="none" xmlns="http://www.w3.org/2000/svg">
<path d="M65.6967 35.1384C65.644 35.1031 65.2226 34.8209 64.5028 34.4152C61.3251 32.5806 52.4766 28.2236 45.2608 31.6105C41.5388 33.3568 38.8702 35.8793 36.6932 38.4547C32.4445 43.4644 30.1446 48.6152 25.7028 48.3329C18.9962 47.9096 15.8185 38.1548 13.8872 29.1232C11.956 20.0741 13.5186 9.94883 25.3692 10.478C37.255 10.9719 55.7245 17.1459 65.6967 35.1384Z" fill="url(#paint0_radial_293_26557)"/>
<path d="M44.4357 32.0161C44.699 31.875 44.9799 31.7339 45.2608 31.6104C54.1971 27.4122 65.6967 35.1384 65.6967 35.1384C55.707 17.1458 37.2375 10.9719 25.3868 10.4604C21.8228 10.3016 19.2069 11.113 17.3108 12.5595C19.4 14.2706 32.9537 25.2778 44.4357 32.0161Z" fill="url(#paint1_radial_293_26557)"/>
<path d="M64.5028 34.4152C61.3251 32.5806 52.4766 28.2236 45.2608 31.6104C41.5388 33.3568 38.8702 35.8793 36.6932 38.4547C36.8161 38.0842 40.661 26.3538 48.5263 26.5126C56.0756 26.6713 63.6776 33.639 64.5028 34.4152Z" fill="#00A453"/>
<path d="M73.8605 60.5573C63.3616 60.3456 49.4393 48.968 44.1196 35.3501C44.1723 35.3854 44.541 35.6676 45.173 36.1086C47.9294 37.996 55.5841 42.6706 62.8701 41.965C63.7303 41.8768 64.5028 41.6651 65.2226 41.3652C65.2402 41.3652 65.2577 41.3476 65.2753 41.3476C68.0317 40.1657 69.7522 37.7138 70.5774 36.0733C70.7529 35.7205 70.8934 35.3854 70.9987 35.1384C71.6483 33.4097 72.0346 31.3635 73.6498 31.1871C75.265 31.0107 78.6885 34.6621 82.0769 44.5933C82.112 44.6815 82.1296 44.7521 82.1647 44.8403C85.4478 54.6127 84.2715 60.769 73.8605 60.5573Z" fill="url(#paint2_radial_293_26557)"/>
<path d="M73.6498 31.1871C72.0346 31.3635 71.6483 33.4097 70.9987 35.1384C70.8934 35.403 70.7529 35.7205 70.5774 36.0733C69.7522 37.7138 68.0317 40.1657 65.2753 41.3476C65.2753 41.3476 70.5774 44.5933 82.1647 44.8226C82.1472 44.7344 82.112 44.6639 82.0769 44.5757C78.6885 34.6621 75.265 31.0107 73.6498 31.1871Z" fill="url(#paint3_radial_293_26557)"/>
<path d="M70.5598 36.0733C70.314 38.9133 69.0675 44.8755 62.8876 45.2283C54.8818 45.687 45.4539 36.3908 45.173 36.1086C47.9294 37.996 55.5841 42.6706 62.87 41.965C67.0485 41.5416 69.524 38.1548 70.5598 36.0733Z" fill="#00A453"/>
<defs>
<radialGradient id="paint0_radial_293_26557" cx="0" cy="0" r="1" gradientUnits="userSpaceOnUse" gradientTransform="translate(25.8128 47.547) scale(22.8523 22.9605)">
<stop stop-color="#00E97B"/>
<stop offset="0.2867" stop-color="#00DD74"/>
<stop offset="0.8009" stop-color="#00BE62"/>
<stop offset="1" stop-color="#00B05A"/>
</radialGradient>
<radialGradient id="paint1_radial_293_26557" cx="0" cy="0" r="1" gradientUnits="userSpaceOnUse" gradientTransform="translate(43.3591 25.3415) scale(24.3977 24.5133)">
<stop stop-color="#00F380"/>
<stop offset="1" stop-color="#00F380"/>
</radialGradient>
<radialGradient id="paint2_radial_293_26557" cx="0" cy="0" r="1" gradientUnits="userSpaceOnUse" gradientTransform="translate(53.8831 43.1421) scale(36.1893 36.3607)">
<stop stop-color="#00E97B"/>
<stop offset="0.2867" stop-color="#00DD74"/>
<stop offset="0.8009" stop-color="#00BE62"/>
<stop offset="1" stop-color="#00B05A"/>
</radialGradient>
<radialGradient id="paint3_radial_293_26557" cx="0" cy="0" r="1" gradientUnits="userSpaceOnUse" gradientTransform="translate(73.7135 38.0049) scale(7.66627 7.70259)">
<stop stop-color="#00F380"/>
<stop offset="1" stop-color="#00F380"/>
</radialGradient>
</defs>
</svg>
