<svg width="148" height="77" viewBox="0 0 148 77" fill="none" xmlns="http://www.w3.org/2000/svg">
<path d="M23.6657 56.0533H5.50222V76.654H0.965225V53.7869C0.965225 53.4743 1.02738 53.1773 1.13614 52.896C1.2449 52.6146 1.41582 52.3645 1.61781 52.1614C1.8198 51.9582 2.0684 51.7862 2.34808 51.6768C2.62775 51.5674 2.92297 51.5049 3.24926 51.5049H23.6657V56.0533ZM21.6459 66.3692H7.30459V61.774H21.6459V66.3692Z" fill="url(#paint0_radial_78_4370)"/>
<path d="M44.9989 70.3705C44.9989 70.9957 44.8902 71.6834 44.6727 72.418C44.4551 73.1527 44.0978 73.8248 43.6006 74.45C43.1034 75.0752 42.4663 75.6066 41.6583 76.013C40.8659 76.435 39.8871 76.6382 38.7528 76.6382H30.58C29.9585 76.6382 29.2748 76.5288 28.5446 76.31C27.8143 76.0912 27.1462 75.7317 26.5247 75.2315C25.9032 74.7313 25.3749 74.0905 24.9709 73.2777C24.5514 72.4806 24.3494 71.4959 24.3494 70.3548C24.3494 69.7296 24.4582 69.0419 24.6757 68.3073C24.8932 67.5727 25.2506 66.8849 25.7478 66.2597C26.245 65.6345 26.882 65.1031 27.69 64.6967C28.4824 64.2747 29.4613 64.0715 30.5955 64.0715H38.7683V68.4167H30.5955C29.974 68.4167 29.5079 68.6043 29.1661 68.9794C28.8242 69.3545 28.6533 69.8234 28.6533 70.3861C28.6533 70.9801 28.8553 71.449 29.2438 71.7772C29.6322 72.1054 30.0983 72.2774 30.6266 72.2774H38.7683C39.3899 72.2774 39.856 72.0898 40.1978 71.7147C40.5396 71.3396 40.7106 70.8706 40.7106 70.308V63.9464C40.7106 63.3525 40.5241 62.8836 40.1667 62.5241C39.7938 62.1802 39.3432 61.9927 38.7839 61.9927H28.8242V57.6631H38.7839C39.4054 57.6631 40.089 57.7725 40.8193 57.9913C41.5496 58.2101 42.2177 58.5696 42.8392 59.0698C43.4607 59.57 43.989 60.2108 44.393 61.0236C44.8125 61.8207 45.0145 62.8054 45.0145 63.9464V70.3705H44.9989Z" fill="url(#paint1_radial_78_4370)"/>
<path d="M69.7504 76.6538H65.2134V66.1347C65.2134 65.5407 65.1047 65.0093 64.9027 64.5248C64.7007 64.0559 64.421 63.6495 64.0792 63.3056C63.7374 62.9617 63.3179 62.7117 62.8517 62.5241C62.3856 62.3365 61.8729 62.2584 61.329 62.2584H53.3893V76.6538H48.8678V59.9451C48.8678 59.6325 48.93 59.3355 49.0387 59.0542C49.1475 58.7728 49.3184 58.5384 49.5204 58.3352C49.7224 58.132 49.971 57.9757 50.2507 57.8506C50.5304 57.7412 50.8256 57.6787 51.1363 57.6787H61.3601C61.935 57.6787 62.5254 57.7412 63.1625 57.8663C63.7995 57.9913 64.421 58.2101 65.0425 58.4915C65.664 58.7728 66.2545 59.148 66.8138 59.5856C67.3732 60.0232 67.8704 60.5547 68.321 61.1799C68.756 61.8051 69.0979 62.5241 69.362 63.3525C69.6106 64.1653 69.7504 65.0875 69.7504 66.119V76.6538Z" fill="url(#paint2_radial_78_4370)"/>
<path d="M97.2055 76.654H76.5249C76.1986 76.654 75.9033 76.5914 75.6237 76.482C75.344 76.3726 75.1109 76.2007 74.8934 75.9975C74.6914 75.7943 74.536 75.5442 74.4117 75.2629C74.303 74.9815 74.2408 74.6846 74.2408 74.3563V51.4893H78.7778V72.0899H97.2055V76.654Z" fill="url(#paint3_radial_78_4370)"/>
<path d="M120.916 76.6538H116.379V66.1347C116.379 65.5407 116.27 65.0093 116.068 64.5248C115.866 64.0559 115.587 63.6495 115.245 63.3056C114.903 62.9617 114.483 62.7117 114.017 62.5241C113.551 62.3365 113.038 62.2584 112.495 62.2584H104.555V76.6538H100.018V59.9451C100.018 59.6325 100.08 59.3355 100.189 59.0542C100.297 58.7728 100.468 58.5384 100.67 58.3352C100.872 58.132 101.121 57.9757 101.401 57.8506C101.68 57.7412 101.976 57.6787 102.286 57.6787H112.51C113.085 57.6787 113.675 57.7412 114.312 57.8663C114.949 57.9913 115.571 58.2101 116.193 58.4915C116.814 58.7728 117.404 59.148 117.964 59.5856C118.523 60.0232 119.02 60.5547 119.471 61.1799C119.906 61.8051 120.248 62.5241 120.512 63.3525C120.761 64.1653 120.9 65.0875 120.9 66.119V76.6538H120.916Z" fill="url(#paint4_radial_78_4370)"/>
<path d="M129.493 76.6536H124.956V49.6758H129.493V76.6536ZM147.05 76.6536H140.509L131.373 67.7756C130.86 67.3067 130.627 66.7284 130.658 66.025C130.674 65.6968 130.767 65.3842 130.907 65.1028C131.047 64.8215 131.249 64.5714 131.513 64.3682L139.794 57.6472H147.05L136.376 66.2907L147.05 76.6536Z" fill="url(#paint5_radial_78_4370)"/>
<path d="M89.2191 22.2291C89.1725 22.1978 88.7996 21.9477 88.1626 21.5882C85.3503 19.9627 77.5193 16.102 71.1333 19.103C67.8393 20.6504 65.4776 22.8855 63.5509 25.1676C59.7908 29.6066 57.7554 34.1706 53.8243 33.9205C47.889 33.5454 45.0766 24.9018 43.3675 16.8992C41.6584 8.88084 43.0412 -0.0909258 53.5291 0.377982C64.0481 0.831259 80.3937 6.30185 89.2191 22.2291Z" fill="url(#paint6_radial_78_4370)"/>
<path d="M70.403 19.478C70.6361 19.3529 70.8847 19.2279 71.1333 19.1185C79.042 15.3985 89.2191 22.2445 89.2191 22.2445C80.3782 6.30165 64.0326 0.831059 53.5447 0.377782C50.3905 0.23711 48.0754 0.956102 46.3974 2.23778C48.2463 3.73829 60.2414 13.5072 70.403 19.478Z" fill="url(#paint7_radial_78_4370)"/>
<path d="M88.1626 21.5878C85.3503 19.9622 77.5193 16.1015 71.1333 19.1025C67.8393 20.6499 65.4776 22.8851 63.5509 25.1671C63.6597 24.8388 67.0624 14.4447 74.0233 14.5854C80.72 14.7417 87.4478 20.9 88.1626 21.5878Z" fill="#00A453"/>
<path d="M96.4442 44.7524C87.1526 44.5648 74.8313 34.4833 70.1234 22.4168C70.17 22.448 70.4963 22.6981 71.0556 23.0889C73.495 24.7613 80.2694 28.9033 86.7176 28.2781C87.4789 28.2 88.1626 28.0124 88.7996 27.7467C88.8152 27.7467 88.8307 27.7311 88.8462 27.7311C91.2856 26.6838 92.8083 24.5112 93.5386 23.0576C93.694 22.745 93.8183 22.448 93.9115 22.2292C94.4864 20.6974 94.8282 18.8843 96.2577 18.728C97.6872 18.5717 100.717 21.8072 103.716 30.607C103.747 30.6852 103.762 30.7477 103.793 30.8258C106.699 39.5006 105.658 44.94 96.4442 44.7524Z" fill="url(#paint8_radial_78_4370)"/>
<path d="M96.2577 18.728C94.8282 18.8843 94.4864 20.6974 93.9115 22.2292C93.8183 22.4637 93.694 22.745 93.5386 23.0576C92.8083 24.5112 91.2856 26.6838 88.8462 27.7311C88.8462 27.7311 93.5386 30.607 103.793 30.8102C103.778 30.7321 103.747 30.6695 103.716 30.5914C100.717 21.8072 97.6872 18.5717 96.2577 18.728Z" fill="url(#paint9_radial_78_4370)"/>
<path d="M93.5231 23.0732C93.3056 25.5897 92.2024 30.8727 86.7331 31.1853C79.6479 31.5917 71.3042 23.3546 71.0556 23.1045C73.495 24.7769 80.2694 28.919 86.7176 28.2937C90.4155 27.903 92.6064 24.902 93.5231 23.0732Z" fill="#00A453"/>
<defs>
<radialGradient id="paint0_radial_78_4370" cx="0" cy="0" r="1" gradientUnits="userSpaceOnUse" gradientTransform="translate(31.986 55.5843) scale(34.3192 34.5237)">
<stop stop-color="#00E97B"/>
<stop offset="0.2867" stop-color="#00DD74"/>
<stop offset="0.8009" stop-color="#00BE62"/>
<stop offset="1" stop-color="#00B05A"/>
</radialGradient>
<radialGradient id="paint1_radial_78_4370" cx="0" cy="0" r="1" gradientUnits="userSpaceOnUse" gradientTransform="translate(31.986 55.5842) scale(34.3192 34.5237)">
<stop stop-color="#00E97B"/>
<stop offset="0.2867" stop-color="#00DD74"/>
<stop offset="0.8009" stop-color="#00BE62"/>
<stop offset="1" stop-color="#00B05A"/>
</radialGradient>
<radialGradient id="paint2_radial_78_4370" cx="0" cy="0" r="1" gradientUnits="userSpaceOnUse" gradientTransform="translate(31.986 55.5841) scale(34.3191 34.5237)">
<stop stop-color="#00E97B"/>
<stop offset="0.2867" stop-color="#00DD74"/>
<stop offset="0.8009" stop-color="#00BE62"/>
<stop offset="1" stop-color="#00B05A"/>
</radialGradient>
<radialGradient id="paint3_radial_78_4370" cx="0" cy="0" r="1" gradientUnits="userSpaceOnUse" gradientTransform="translate(42.4083 56.2982) scale(32.4808 32.6744)">
<stop stop-color="#00F380"/>
<stop offset="1" stop-color="#00F380"/>
</radialGradient>
<radialGradient id="paint4_radial_78_4370" cx="0" cy="0" r="1" gradientUnits="userSpaceOnUse" gradientTransform="translate(42.4083 56.2981) scale(32.4808 32.6744)">
<stop stop-color="#00F380"/>
<stop offset="1" stop-color="#00F380"/>
</radialGradient>
<radialGradient id="paint5_radial_78_4370" cx="0" cy="0" r="1" gradientUnits="userSpaceOnUse" gradientTransform="translate(42.4083 56.2979) scale(32.4808 32.6744)">
<stop stop-color="#00F380"/>
<stop offset="1" stop-color="#00F380"/>
</radialGradient>
<radialGradient id="paint6_radial_78_4370" cx="0" cy="0" r="1" gradientUnits="userSpaceOnUse" gradientTransform="translate(53.9235 33.2316) scale(20.2244 20.3449)">
<stop stop-color="#00E97B"/>
<stop offset="0.2867" stop-color="#00DD74"/>
<stop offset="0.8009" stop-color="#00BE62"/>
<stop offset="1" stop-color="#00B05A"/>
</radialGradient>
<radialGradient id="paint7_radial_78_4370" cx="0" cy="0" r="1" gradientUnits="userSpaceOnUse" gradientTransform="translate(69.452 13.5556) scale(21.5921 21.7208)">
<stop stop-color="#00F380"/>
<stop offset="1" stop-color="#00F380"/>
</radialGradient>
<radialGradient id="paint8_radial_78_4370" cx="0" cy="0" r="1" gradientUnits="userSpaceOnUse" gradientTransform="translate(78.7658 29.3287) scale(32.0277 32.2186)">
<stop stop-color="#00E97B"/>
<stop offset="0.2867" stop-color="#00DD74"/>
<stop offset="0.8009" stop-color="#00BE62"/>
<stop offset="1" stop-color="#00B05A"/>
</radialGradient>
<radialGradient id="paint9_radial_78_4370" cx="0" cy="0" r="1" gradientUnits="userSpaceOnUse" gradientTransform="translate(96.3159 24.7767) scale(6.78469 6.82512)">
<stop stop-color="#00F380"/>
<stop offset="1" stop-color="#00F380"/>
</radialGradient>
</defs>
</svg>
