<svg width="194" height="39" viewBox="0 0 194 39" fill="none" xmlns="http://www.w3.org/2000/svg">
<path d="M40.8858 19.0989C40.8448 19.0716 40.5167 18.8532 39.9562 18.5392C37.4817 17.1196 30.5913 13.7479 24.9724 16.3688C22.0741 17.7202 19.996 19.6722 18.3008 21.6652C14.9923 25.542 13.2013 29.528 9.74249 29.3095C4.52003 28.9819 2.04552 21.4332 0.541668 14.4441C-0.962181 7.44131 0.254569 -0.39412 9.48274 0.0153972C18.7382 0.411264 33.1205 5.18897 40.8858 19.0989Z" fill="url(#paint0_radial_1105_4451)"/>
<path d="M24.3298 16.6964C24.5348 16.5872 24.7536 16.478 24.9723 16.3825C31.931 13.1336 40.8858 19.1126 40.8858 19.1126C33.1068 5.18899 18.7245 0.411288 9.49634 0.0154212C6.72106 -0.107434 4.68403 0.520493 3.20752 1.63984C4.83441 2.9503 15.3887 11.4819 24.3298 16.6964Z" fill="url(#paint1_radial_1105_4451)"/>
<path d="M39.9562 18.5392C37.4817 17.1196 30.5913 13.7479 24.9724 16.3688C22.0741 17.7202 19.996 19.6722 18.3008 21.6652C18.3965 21.3786 21.3905 12.3009 27.5153 12.4238C33.4076 12.5603 39.3273 17.9386 39.9562 18.5392Z" fill="#00A453"/>
<path d="M47.243 38.7694C39.0676 38.6056 28.2262 29.801 24.0837 19.2627C24.1248 19.29 24.4119 19.5084 24.904 19.8497C27.0504 21.3103 33.0111 24.9277 38.6847 24.3817C39.3546 24.3134 39.9562 24.1496 40.5167 23.9176C40.5304 23.9176 40.5441 23.9039 40.5577 23.9039C42.7041 22.9893 44.0439 21.0919 44.6865 19.8224C44.8232 19.5494 44.9326 19.29 45.0146 19.0989C45.5204 17.7612 45.8212 16.1777 47.079 16.0412C48.3367 15.9047 51.0026 18.7303 53.6412 26.4156C53.6686 26.4839 53.6822 26.5385 53.7096 26.6067C56.2661 34.1828 55.3501 38.9332 47.243 38.7694Z" fill="url(#paint2_radial_1105_4451)"/>
<path d="M47.0789 16.0412C45.8211 16.1777 45.5203 17.7612 45.0145 19.0989C44.9325 19.3037 44.8231 19.5494 44.6864 19.8224C44.0438 21.0919 42.704 22.9893 40.5576 23.9039C40.5576 23.9039 44.6864 26.4156 53.7095 26.5931C53.6958 26.5248 53.6685 26.4702 53.6411 26.402C51.0025 18.7303 48.3366 15.9047 47.0789 16.0412Z" fill="url(#paint3_radial_1105_4451)"/>
<path d="M44.6728 19.836C44.4814 22.0338 43.5108 26.6477 38.6985 26.9207C32.4643 27.2756 25.1228 20.0817 24.9041 19.8633C27.0505 21.3239 33.0112 24.9413 38.6848 24.3953C41.9386 24.0541 43.8662 21.4331 44.6728 19.836Z" fill="#00A453"/>
<path d="M86.6659 13.2639H70.911V31H66.9756V11.3126C66.9756 11.0435 67.0295 10.7878 67.1238 10.5456C67.2182 10.3034 67.3664 10.0881 67.5416 9.91313C67.7168 9.73819 67.9325 9.59017 68.1751 9.49597C68.4177 9.40177 68.6737 9.34795 68.9568 9.34795H86.6659V13.2639ZM84.9139 22.1454H72.4743V18.1891H84.9139V22.1454Z" fill="url(#paint4_radial_1105_4451)"/>
<path d="M105.17 25.5904C105.17 26.1286 105.076 26.7207 104.887 27.3532C104.699 27.9857 104.389 28.5643 103.957 29.1026C103.526 29.6409 102.974 30.0984 102.273 30.4483C101.585 30.8116 100.736 30.9865 99.7525 30.9865H92.6634C92.1243 30.9865 91.5313 30.8923 90.8979 30.704C90.2645 30.5156 89.6849 30.206 89.1459 29.7754C88.6068 29.3448 88.1485 28.7931 87.7981 28.0933C87.4342 27.407 87.259 26.5592 87.259 25.5769C87.259 25.0386 87.3534 24.4465 87.5421 23.8141C87.7307 23.1816 88.0407 22.5895 88.472 22.0512C88.9033 21.5129 89.4558 21.0554 90.1567 20.7055C90.844 20.3422 91.6931 20.1672 92.6769 20.1672H99.766V23.9082H92.6769C92.1378 23.9082 91.7335 24.0697 91.437 24.3927C91.1405 24.7157 90.9922 25.1194 90.9922 25.6038C90.9922 26.1152 91.1675 26.5189 91.5044 26.8015C91.8413 27.0841 92.2456 27.2321 92.7039 27.2321H99.766C100.305 27.2321 100.709 27.0706 101.006 26.7476C101.302 26.4247 101.451 26.021 101.451 25.5365V20.0596C101.451 19.5482 101.289 19.1445 100.979 18.835C100.655 18.539 100.265 18.3775 99.7795 18.3775H91.1405V14.6499H99.7795C100.319 14.6499 100.912 14.7441 101.545 14.9325C102.178 15.1209 102.758 15.4304 103.297 15.8611C103.836 16.2917 104.294 16.8434 104.645 17.5432C105.009 18.2295 105.184 19.0772 105.184 20.0596V25.5904H105.17Z" fill="url(#paint5_radial_1105_4451)"/>
<path d="M126.64 31H122.704V21.9435C122.704 21.4322 122.61 20.9746 122.435 20.5575C122.26 20.1538 122.017 19.8039 121.72 19.5079C121.424 19.2118 121.06 18.9965 120.656 18.835C120.251 18.6735 119.807 18.6062 119.335 18.6062H112.448V31H108.526V16.6146C108.526 16.3455 108.58 16.0898 108.674 15.8476C108.769 15.6054 108.917 15.4035 109.092 15.2286C109.267 15.0536 109.483 14.9191 109.726 14.8114C109.968 14.7172 110.224 14.6634 110.494 14.6634H119.362C119.861 14.6634 120.373 14.7172 120.925 14.8249C121.478 14.9325 122.017 15.1209 122.556 15.3631C123.095 15.6054 123.607 15.9283 124.092 16.3051C124.578 16.6819 125.009 17.1394 125.4 17.6777C125.777 18.216 126.074 18.835 126.303 19.5482C126.518 20.248 126.64 21.0419 126.64 21.9301V31Z" fill="url(#paint6_radial_1105_4451)"/>
<path d="M150.454 31H132.516C132.233 31 131.977 30.9462 131.734 30.852C131.492 30.7578 131.289 30.6097 131.101 30.4348C130.926 30.2599 130.791 30.0446 130.683 29.8023C130.589 29.5601 130.535 29.3044 130.535 29.0218V9.33449H134.47V27.0706H150.454V31Z" fill="url(#paint7_radial_1105_4451)"/>
<path d="M171.021 31H167.085V21.9435C167.085 21.4322 166.991 20.9746 166.816 20.5575C166.64 20.1538 166.398 19.8039 166.101 19.5079C165.805 19.2118 165.441 18.9965 165.037 18.835C164.632 18.6735 164.188 18.6062 163.716 18.6062H156.829V31H152.894V16.6146C152.894 16.3455 152.947 16.0898 153.042 15.8476C153.136 15.6054 153.284 15.4035 153.46 15.2286C153.635 15.0536 153.85 14.9191 154.093 14.8114C154.336 14.7172 154.592 14.6634 154.861 14.6634H163.729C164.228 14.6634 164.74 14.7172 165.293 14.8249C165.845 14.9325 166.384 15.1209 166.923 15.3631C167.463 15.6054 167.975 15.9283 168.46 16.3051C168.945 16.6819 169.376 17.1394 169.767 17.6777C170.145 18.216 170.441 18.835 170.67 19.5482C170.886 20.248 171.007 21.0419 171.007 21.9301V31H171.021Z" fill="url(#paint8_radial_1105_4451)"/>
<path d="M178.46 31H174.525V7.7735H178.46V31ZM193.689 31H188.015L180.091 23.3565C179.646 22.9528 179.444 22.4549 179.471 21.8493C179.484 21.5668 179.565 21.2976 179.686 21.0554C179.808 20.8132 179.983 20.5979 180.212 20.4229L187.395 14.6365H193.689L184.43 22.0781L193.689 31Z" fill="url(#paint9_radial_1105_4451)"/>
<defs>
<radialGradient id="paint0_radial_1105_4451" cx="0" cy="0" r="1" gradientUnits="userSpaceOnUse" gradientTransform="translate(9.82974 28.7079) scale(17.7951 17.7681)">
<stop stop-color="#00E97B"/>
<stop offset="0.2867" stop-color="#00DD74"/>
<stop offset="0.8009" stop-color="#00BE62"/>
<stop offset="1" stop-color="#00B05A"/>
</radialGradient>
<radialGradient id="paint1_radial_1105_4451" cx="0" cy="0" r="1" gradientUnits="userSpaceOnUse" gradientTransform="translate(23.493 11.5242) scale(18.9986 18.9697)">
<stop stop-color="#00F380"/>
<stop offset="1" stop-color="#00F380"/>
</radialGradient>
<radialGradient id="paint2_radial_1105_4451" cx="0" cy="0" r="1" gradientUnits="userSpaceOnUse" gradientTransform="translate(31.6881 25.2992) scale(28.1807 28.1379)">
<stop stop-color="#00E97B"/>
<stop offset="0.2867" stop-color="#00DD74"/>
<stop offset="0.8009" stop-color="#00BE62"/>
<stop offset="1" stop-color="#00B05A"/>
</radialGradient>
<radialGradient id="paint3_radial_1105_4451" cx="0" cy="0" r="1" gradientUnits="userSpaceOnUse" gradientTransform="translate(47.1301 21.3238) scale(5.96975 5.96068)">
<stop stop-color="#00F380"/>
<stop offset="1" stop-color="#00F380"/>
</radialGradient>
<radialGradient id="paint4_radial_1105_4451" cx="0" cy="0" r="1" gradientUnits="userSpaceOnUse" gradientTransform="translate(93.8829 12.8601) scale(29.7683 29.7231)">
<stop stop-color="#00E97B"/>
<stop offset="0.2867" stop-color="#00DD74"/>
<stop offset="0.8009" stop-color="#00BE62"/>
<stop offset="1" stop-color="#00B05A"/>
</radialGradient>
<radialGradient id="paint5_radial_1105_4451" cx="0" cy="0" r="1" gradientUnits="userSpaceOnUse" gradientTransform="translate(93.883 12.8601) scale(29.7683 29.7231)">
<stop stop-color="#00E97B"/>
<stop offset="0.2867" stop-color="#00DD74"/>
<stop offset="0.8009" stop-color="#00BE62"/>
<stop offset="1" stop-color="#00B05A"/>
</radialGradient>
<radialGradient id="paint6_radial_1105_4451" cx="0" cy="0" r="1" gradientUnits="userSpaceOnUse" gradientTransform="translate(93.8829 12.8601) scale(29.7683 29.7231)">
<stop stop-color="#00E97B"/>
<stop offset="0.2867" stop-color="#00DD74"/>
<stop offset="0.8009" stop-color="#00BE62"/>
<stop offset="1" stop-color="#00B05A"/>
</radialGradient>
<radialGradient id="paint7_radial_1105_4451" cx="0" cy="0" r="1" gradientUnits="userSpaceOnUse" gradientTransform="translate(102.923 13.4748) scale(28.1738 28.1309)">
<stop stop-color="#00F380"/>
<stop offset="1" stop-color="#00F380"/>
</radialGradient>
<radialGradient id="paint8_radial_1105_4451" cx="0" cy="0" r="1" gradientUnits="userSpaceOnUse" gradientTransform="translate(102.923 13.4748) scale(28.1738 28.1309)">
<stop stop-color="#00F380"/>
<stop offset="1" stop-color="#00F380"/>
</radialGradient>
<radialGradient id="paint9_radial_1105_4451" cx="0" cy="0" r="1" gradientUnits="userSpaceOnUse" gradientTransform="translate(102.923 13.4748) scale(28.1738 28.1309)">
<stop stop-color="#00F380"/>
<stop offset="1" stop-color="#00F380"/>
</radialGradient>
</defs>
</svg>
