<svg width="512" height="512" viewBox="0 0 512 512" fill="none" xmlns="http://www.w3.org/2000/svg">
<path d="M469.981 132.696L256.694 256.645L42.0188 132.702M469.981 304.309L322.519 390.528L322.246 294.001L387.877 255.698M106.944 316.087L107.144 245.504L191.149 294.004L190.929 369.581M106.658 417.105L106.902 331.107" stroke="#51FF94" stroke-width="15.0196" stroke-miterlimit="10"/>
<path d="M286.04 101.626L339.734 132.625L256.275 181.127L191.149 143.526M190.391 46.4026L271.02 92.9535" stroke="#51FF94" stroke-width="15.0196" stroke-miterlimit="10"/>
<path d="M406.197 416.327L255.995 503.325L190.662 465.604L190.937 368.291L106.658 417.105L42.0188 379.382V132.627L106.933 94.904L190.391 143.088V46.4026L255.305 8.67834L469.981 132.622V207.781L387.235 256.484L469.981 304.309V379.382L421.216 407.628M106.658 417.105L171.571 379.382M256.694 256.645V503.325" stroke="#51FF94" stroke-width="15.0196" stroke-miterlimit="10"/>
</svg>
