<svg width="80" height="80" viewBox="0 0 80 80" fill="none" xmlns="http://www.w3.org/2000/svg">
<path d="M55.7666 6.88336H24.2333C22.142 7.00898 20.1848 7.95467 18.7867 9.51499C17.3887 11.0753 16.6628 13.1242 16.7666 15.2167V64.7834C16.6628 66.8758 17.3887 68.9247 18.7867 70.4851C20.1848 72.0454 22.142 72.9911 24.2333 73.1167H55.7666C57.8579 72.9911 59.8151 72.0454 61.2132 70.4851C62.6112 68.9247 63.3372 66.8758 63.2333 64.7834V15.2167C63.3372 13.1242 62.6112 11.0753 61.2132 9.51499C59.8151 7.95467 57.8579 7.00898 55.7666 6.88336ZM59.9 64.7834C60.0026 65.9919 59.6272 67.1926 58.8543 68.1274C58.0815 69.0623 56.9729 69.6568 55.7666 69.7834H24.2333C23.027 69.6568 21.9184 69.0623 21.1456 68.1274C20.3728 67.1926 19.9974 65.9919 20.1 64.7834V15.2167C19.9974 14.0081 20.3728 12.8075 21.1456 11.8726C21.9184 10.9378 23.027 10.3432 24.2333 10.2167H29.3333V11.9167C29.3333 12.8007 29.6845 13.6486 30.3096 14.2737C30.9347 14.8988 31.7826 15.25 32.6666 15.25H47.3333C48.2173 15.25 49.0652 14.8988 49.6903 14.2737C50.3154 13.6486 50.6666 12.8007 50.6666 11.9167V10.2167H55.7666C56.9729 10.3432 58.0815 10.9378 58.8543 11.8726C59.6272 12.8075 60.0026 14.0081 59.9 15.2167V64.7834Z" fill="#00B05A"/>
<path d="M33.3333 63.1134H46.6666C47.1087 63.1134 47.5326 62.9378 47.8451 62.6252C48.1577 62.3126 48.3333 61.8887 48.3333 61.4467C48.3333 61.0047 48.1577 60.5807 47.8451 60.2682C47.5326 59.9556 47.1087 59.78 46.6666 59.78H33.3333C32.8913 59.78 32.4673 59.9556 32.1548 60.2682C31.8422 60.5807 31.6666 61.0047 31.6666 61.4467C31.6666 61.8887 31.8422 62.3126 32.1548 62.6252C32.4673 62.9378 32.8913 63.1134 33.3333 63.1134Z" fill="#00B05A"/>
</svg>
