<svg width="208" height="60" viewBox="0 0 208 60" fill="none" xmlns="http://www.w3.org/2000/svg">
<rect width="208" height="60" rx="8" fill="#1A1A1A"/>
<g clip-path="url(#clip0_307_26728)">
<path fill-rule="evenodd" clip-rule="evenodd" d="M54.7271 22.9589C47.9493 27.2251 48.5912 36.969 55.918 40.3043C55.677 40.9422 55.4523 41.5921 55.1884 42.2257C54.0954 44.8511 52.5598 47.2064 50.7301 49.3697C49.7126 50.5727 48.5229 51.5547 46.9026 51.8342C45.6631 52.0481 44.4845 51.8077 43.3267 51.3497C42.38 50.9751 41.433 50.5567 40.4463 50.3382C38.7485 49.9622 37.0814 50.21 35.4575 50.8547C34.4376 51.2596 33.3929 51.6298 32.3283 51.888C31.0327 52.2021 29.7986 51.8381 28.8031 51.0053C27.8373 50.1972 26.9228 49.2943 26.1342 48.3137C22.9879 44.4013 21.0664 39.9307 20.3401 34.9652C19.8447 31.5793 19.9727 28.2255 21.5215 25.1006C23.5176 21.0729 26.7512 18.8315 31.3275 18.7486C32.5483 18.7266 33.6902 19.1472 34.8196 19.5705C35.6211 19.871 36.4194 20.1806 37.2277 20.4615C37.9343 20.707 38.6521 20.708 39.3608 20.4489C40.5201 20.0249 41.6738 19.5852 42.8377 19.1741C46.9265 17.7293 51.8861 19.1447 54.4198 22.5244C54.526 22.666 54.6244 22.8133 54.7271 22.9589Z" fill="#F3F3F3"/>
<path fill-rule="evenodd" clip-rule="evenodd" d="M37.9742 18.1967C37.8171 17.081 37.9153 16.0855 38.2249 15.1243C39.4433 11.342 41.9944 8.99133 45.8732 8.10596C46.797 7.89506 46.8157 7.92922 46.8147 8.86478C46.8102 13.0392 43.7136 17.0727 39.791 17.9773C39.2092 18.1115 38.5995 18.1244 37.9742 18.1967Z" fill="#F3F3F3"/>
</g>
<path d="M71.528 10.636C72.44 10.636 73.228 10.808 73.892 11.152C74.564 11.488 75.076 11.972 75.428 12.604C75.788 13.236 75.968 13.98 75.968 14.836C75.968 15.692 75.788 16.436 75.428 17.068C75.076 17.692 74.564 18.172 73.892 18.508C73.228 18.836 72.44 19 71.528 19H68.924V10.636H71.528ZM71.528 18.1C72.608 18.1 73.432 17.816 74 17.248C74.568 16.672 74.852 15.868 74.852 14.836C74.852 13.796 74.564 12.984 73.988 12.4C73.42 11.816 72.6 11.524 71.528 11.524H70.016V18.1H71.528ZM80.2764 19.108C79.6604 19.108 79.1004 18.968 78.5964 18.688C78.1004 18.408 77.7084 18.012 77.4204 17.5C77.1404 16.98 77.0004 16.38 77.0004 15.7C77.0004 15.028 77.1444 14.436 77.4324 13.924C77.7284 13.404 78.1284 13.008 78.6324 12.736C79.1364 12.456 79.7004 12.316 80.3244 12.316C80.9484 12.316 81.5124 12.456 82.0164 12.736C82.5204 13.008 82.9164 13.4 83.2044 13.912C83.5004 14.424 83.6484 15.02 83.6484 15.7C83.6484 16.38 83.4964 16.98 83.1924 17.5C82.8964 18.012 82.4924 18.408 81.9804 18.688C81.4684 18.968 80.9004 19.108 80.2764 19.108ZM80.2764 18.148C80.6684 18.148 81.0364 18.056 81.3804 17.872C81.7244 17.688 82.0004 17.412 82.2084 17.044C82.4244 16.676 82.5324 16.228 82.5324 15.7C82.5324 15.172 82.4284 14.724 82.2204 14.356C82.0124 13.988 81.7404 13.716 81.4044 13.54C81.0684 13.356 80.7044 13.264 80.3124 13.264C79.9124 13.264 79.5444 13.356 79.2084 13.54C78.8804 13.716 78.6164 13.988 78.4164 14.356C78.2164 14.724 78.1164 15.172 78.1164 15.7C78.1164 16.236 78.2124 16.688 78.4044 17.056C78.6044 17.424 78.8684 17.7 79.1964 17.884C79.5244 18.06 79.8844 18.148 80.2764 18.148ZM93.8442 12.424L91.7922 19H90.6642L89.0802 13.78L87.4962 19H86.3682L84.3042 12.424H85.4202L86.9322 17.944L88.5642 12.424H89.6802L91.2762 17.956L92.7642 12.424H93.8442ZM98.1319 12.304C98.9319 12.304 99.5799 12.548 100.076 13.036C100.572 13.516 100.82 14.212 100.82 15.124V19H99.7399V15.28C99.7399 14.624 99.5759 14.124 99.2479 13.78C98.9199 13.428 98.4719 13.252 97.9039 13.252C97.3279 13.252 96.8679 13.432 96.5239 13.792C96.1879 14.152 96.0199 14.676 96.0199 15.364V19H94.9279V12.424H96.0199V13.36C96.2359 13.024 96.5279 12.764 96.8959 12.58C97.2719 12.396 97.6839 12.304 98.1319 12.304ZM103.696 10.12V19H102.604V10.12H103.696ZM108.425 19.108C107.809 19.108 107.249 18.968 106.745 18.688C106.249 18.408 105.857 18.012 105.569 17.5C105.289 16.98 105.149 16.38 105.149 15.7C105.149 15.028 105.293 14.436 105.581 13.924C105.877 13.404 106.277 13.008 106.781 12.736C107.285 12.456 107.849 12.316 108.473 12.316C109.097 12.316 109.661 12.456 110.165 12.736C110.669 13.008 111.065 13.4 111.353 13.912C111.649 14.424 111.797 15.02 111.797 15.7C111.797 16.38 111.645 16.98 111.341 17.5C111.045 18.012 110.641 18.408 110.129 18.688C109.617 18.968 109.049 19.108 108.425 19.108ZM108.425 18.148C108.817 18.148 109.185 18.056 109.529 17.872C109.873 17.688 110.149 17.412 110.357 17.044C110.573 16.676 110.681 16.228 110.681 15.7C110.681 15.172 110.577 14.724 110.369 14.356C110.161 13.988 109.889 13.716 109.553 13.54C109.217 13.356 108.853 13.264 108.461 13.264C108.061 13.264 107.693 13.356 107.357 13.54C107.029 13.716 106.765 13.988 106.565 14.356C106.365 14.724 106.265 15.172 106.265 15.7C106.265 16.236 106.361 16.688 106.553 17.056C106.753 17.424 107.017 17.7 107.345 17.884C107.673 18.06 108.033 18.148 108.425 18.148ZM112.825 15.688C112.825 15.016 112.961 14.428 113.233 13.924C113.505 13.412 113.877 13.016 114.349 12.736C114.829 12.456 115.361 12.316 115.945 12.316C116.521 12.316 117.021 12.44 117.445 12.688C117.869 12.936 118.185 13.248 118.393 13.624V12.424H119.497V19H118.393V17.776C118.177 18.16 117.853 18.48 117.421 18.736C116.997 18.984 116.501 19.108 115.933 19.108C115.349 19.108 114.821 18.964 114.349 18.676C113.877 18.388 113.505 17.984 113.233 17.464C112.961 16.944 112.825 16.352 112.825 15.688ZM118.393 15.7C118.393 15.204 118.293 14.772 118.093 14.404C117.893 14.036 117.621 13.756 117.277 13.564C116.941 13.364 116.569 13.264 116.161 13.264C115.753 13.264 115.381 13.36 115.045 13.552C114.709 13.744 114.441 14.024 114.241 14.392C114.041 14.76 113.941 15.192 113.941 15.688C113.941 16.192 114.041 16.632 114.241 17.008C114.441 17.376 114.709 17.66 115.045 17.86C115.381 18.052 115.753 18.148 116.161 18.148C116.569 18.148 116.941 18.052 117.277 17.86C117.621 17.66 117.893 17.376 118.093 17.008C118.293 16.632 118.393 16.196 118.393 15.7ZM120.934 15.688C120.934 15.016 121.07 14.428 121.342 13.924C121.614 13.412 121.986 13.016 122.458 12.736C122.938 12.456 123.474 12.316 124.066 12.316C124.578 12.316 125.054 12.436 125.494 12.676C125.934 12.908 126.27 13.216 126.502 13.6V10.12H127.606V19H126.502V17.764C126.286 18.156 125.966 18.48 125.542 18.736C125.118 18.984 124.622 19.108 124.054 19.108C123.47 19.108 122.938 18.964 122.458 18.676C121.986 18.388 121.614 17.984 121.342 17.464C121.07 16.944 120.934 16.352 120.934 15.688ZM126.502 15.7C126.502 15.204 126.402 14.772 126.202 14.404C126.002 14.036 125.73 13.756 125.386 13.564C125.05 13.364 124.678 13.264 124.27 13.264C123.862 13.264 123.49 13.36 123.154 13.552C122.818 13.744 122.55 14.024 122.35 14.392C122.15 14.76 122.05 15.192 122.05 15.688C122.05 16.192 122.15 16.632 122.35 17.008C122.55 17.376 122.818 17.66 123.154 17.86C123.49 18.052 123.862 18.148 124.27 18.148C124.678 18.148 125.05 18.052 125.386 17.86C125.73 17.66 126.002 17.376 126.202 17.008C126.402 16.632 126.502 16.196 126.502 15.7ZM135.519 19.108C134.903 19.108 134.343 18.968 133.839 18.688C133.343 18.408 132.951 18.012 132.663 17.5C132.383 16.98 132.243 16.38 132.243 15.7C132.243 15.028 132.387 14.436 132.675 13.924C132.971 13.404 133.371 13.008 133.875 12.736C134.379 12.456 134.943 12.316 135.567 12.316C136.191 12.316 136.755 12.456 137.259 12.736C137.763 13.008 138.159 13.4 138.447 13.912C138.743 14.424 138.891 15.02 138.891 15.7C138.891 16.38 138.739 16.98 138.435 17.5C138.139 18.012 137.735 18.408 137.223 18.688C136.711 18.968 136.143 19.108 135.519 19.108ZM135.519 18.148C135.911 18.148 136.279 18.056 136.623 17.872C136.967 17.688 137.243 17.412 137.451 17.044C137.667 16.676 137.775 16.228 137.775 15.7C137.775 15.172 137.671 14.724 137.463 14.356C137.255 13.988 136.983 13.716 136.647 13.54C136.311 13.356 135.947 13.264 135.555 13.264C135.155 13.264 134.787 13.356 134.451 13.54C134.123 13.716 133.859 13.988 133.659 14.356C133.459 14.724 133.359 15.172 133.359 15.7C133.359 16.236 133.455 16.688 133.647 17.056C133.847 17.424 134.111 17.7 134.439 17.884C134.767 18.06 135.127 18.148 135.519 18.148ZM143.53 12.304C144.33 12.304 144.978 12.548 145.474 13.036C145.97 13.516 146.218 14.212 146.218 15.124V19H145.138V15.28C145.138 14.624 144.974 14.124 144.646 13.78C144.318 13.428 143.87 13.252 143.302 13.252C142.726 13.252 142.266 13.432 141.922 13.792C141.586 14.152 141.418 14.676 141.418 15.364V19H140.326V12.424H141.418V13.36C141.634 13.024 141.926 12.764 142.294 12.58C142.67 12.396 143.082 12.304 143.53 12.304ZM152.533 13.324V17.2C152.533 17.52 152.601 17.748 152.737 17.884C152.873 18.012 153.109 18.076 153.445 18.076H154.249V19H153.265C152.657 19 152.201 18.86 151.897 18.58C151.593 18.3 151.441 17.84 151.441 17.2V13.324H150.589V12.424H151.441V10.768H152.533V12.424H154.249V13.324H152.533ZM158.836 12.304C159.332 12.304 159.78 12.412 160.18 12.628C160.58 12.836 160.892 13.152 161.116 13.576C161.348 14 161.464 14.516 161.464 15.124V19H160.384V15.28C160.384 14.624 160.22 14.124 159.892 13.78C159.564 13.428 159.116 13.252 158.548 13.252C157.972 13.252 157.512 13.432 157.168 13.792C156.832 14.152 156.664 14.676 156.664 15.364V19H155.572V10.12H156.664V13.36C156.88 13.024 157.176 12.764 157.552 12.58C157.936 12.396 158.364 12.304 158.836 12.304ZM169.248 15.46C169.248 15.668 169.236 15.888 169.212 16.12H163.956C163.996 16.768 164.216 17.276 164.616 17.644C165.024 18.004 165.516 18.184 166.092 18.184C166.564 18.184 166.956 18.076 167.268 17.86C167.588 17.636 167.812 17.34 167.94 16.972H169.116C168.94 17.604 168.588 18.12 168.06 18.52C167.532 18.912 166.876 19.108 166.092 19.108C165.468 19.108 164.908 18.968 164.412 18.688C163.924 18.408 163.54 18.012 163.26 17.5C162.98 16.98 162.84 16.38 162.84 15.7C162.84 15.02 162.976 14.424 163.248 13.912C163.52 13.4 163.9 13.008 164.388 12.736C164.884 12.456 165.452 12.316 166.092 12.316C166.716 12.316 167.268 12.452 167.748 12.724C168.228 12.996 168.596 13.372 168.852 13.852C169.116 14.324 169.248 14.86 169.248 15.46ZM168.12 15.232C168.12 14.816 168.028 14.46 167.844 14.164C167.66 13.86 167.408 13.632 167.088 13.48C166.776 13.32 166.428 13.24 166.044 13.24C165.492 13.24 165.02 13.416 164.628 13.768C164.244 14.12 164.024 14.608 163.968 15.232H168.12Z" fill="#F3F3F3"/>
<path d="M77.88 43.16H72.06L71.06 46H68.68L73.66 32.08H76.3L81.28 46H78.88L77.88 43.16ZM77.24 41.3L74.98 34.84L72.7 41.3H77.24ZM85.7253 36.6C86.112 36.0933 86.6386 35.6667 87.3053 35.32C87.972 34.9733 88.7253 34.8 89.5653 34.8C90.5253 34.8 91.3986 35.04 92.1853 35.52C92.9853 35.9867 93.612 36.6467 94.0653 37.5C94.5186 38.3533 94.7453 39.3333 94.7453 40.44C94.7453 41.5467 94.5186 42.54 94.0653 43.42C93.612 44.2867 92.9853 44.9667 92.1853 45.46C91.3986 45.94 90.5253 46.18 89.5653 46.18C88.7253 46.18 87.9786 46.0133 87.3253 45.68C86.672 45.3333 86.1386 44.9067 85.7253 44.4V51.24H83.4453V34.98H85.7253V36.6ZM92.4253 40.44C92.4253 39.68 92.2653 39.0267 91.9453 38.48C91.6386 37.92 91.2253 37.5 90.7053 37.22C90.1986 36.9267 89.652 36.78 89.0653 36.78C88.492 36.78 87.9453 36.9267 87.4253 37.22C86.9186 37.5133 86.5053 37.94 86.1853 38.5C85.8786 39.06 85.7253 39.72 85.7253 40.48C85.7253 41.24 85.8786 41.9067 86.1853 42.48C86.5053 43.04 86.9186 43.4667 87.4253 43.76C87.9453 44.0533 88.492 44.2 89.0653 44.2C89.652 44.2 90.1986 44.0533 90.7053 43.76C91.2253 43.4533 91.6386 43.0133 91.9453 42.44C92.2653 41.8667 92.4253 41.2 92.4253 40.44ZM99.28 36.6C99.6667 36.0933 100.193 35.6667 100.86 35.32C101.527 34.9733 102.28 34.8 103.12 34.8C104.08 34.8 104.953 35.04 105.74 35.52C106.54 35.9867 107.167 36.6467 107.62 37.5C108.073 38.3533 108.3 39.3333 108.3 40.44C108.3 41.5467 108.073 42.54 107.62 43.42C107.167 44.2867 106.54 44.9667 105.74 45.46C104.953 45.94 104.08 46.18 103.12 46.18C102.28 46.18 101.533 46.0133 100.88 45.68C100.227 45.3333 99.6933 44.9067 99.28 44.4V51.24H97V34.98H99.28V36.6ZM105.98 40.44C105.98 39.68 105.82 39.0267 105.5 38.48C105.193 37.92 104.78 37.5 104.26 37.22C103.753 36.9267 103.207 36.78 102.62 36.78C102.047 36.78 101.5 36.9267 100.98 37.22C100.473 37.5133 100.06 37.94 99.74 38.5C99.4333 39.06 99.28 39.72 99.28 40.48C99.28 41.24 99.4333 41.9067 99.74 42.48C100.06 43.04 100.473 43.4667 100.98 43.76C101.5 44.0533 102.047 44.2 102.62 44.2C103.207 44.2 103.753 44.0533 104.26 43.76C104.78 43.4533 105.193 43.0133 105.5 42.44C105.82 41.8667 105.98 41.2 105.98 40.44ZM112.835 31.2V46H110.555V31.2H112.835ZM125.928 40.22C125.928 40.6333 125.901 41.0067 125.848 41.34H117.428C117.495 42.22 117.821 42.9267 118.408 43.46C118.995 43.9933 119.715 44.26 120.568 44.26C121.795 44.26 122.661 43.7467 123.168 42.72H125.628C125.295 43.7333 124.688 44.5667 123.808 45.22C122.941 45.86 121.861 46.18 120.568 46.18C119.515 46.18 118.568 45.9467 117.728 45.48C116.901 45 116.248 44.3333 115.768 43.48C115.301 42.6133 115.068 41.6133 115.068 40.48C115.068 39.3467 115.295 38.3533 115.748 37.5C116.215 36.6333 116.861 35.9667 117.688 35.5C118.528 35.0333 119.488 34.8 120.568 34.8C121.608 34.8 122.535 35.0267 123.348 35.48C124.161 35.9333 124.795 36.5733 125.248 37.4C125.701 38.2133 125.928 39.1533 125.928 40.22ZM123.548 39.5C123.535 38.66 123.235 37.9867 122.648 37.48C122.061 36.9733 121.335 36.72 120.468 36.72C119.681 36.72 119.008 36.9733 118.448 37.48C117.888 37.9733 117.555 38.6467 117.448 39.5H123.548ZM137.947 46.14C137.014 46.14 136.174 45.98 135.427 45.66C134.681 45.3267 134.094 44.86 133.667 44.26C133.241 43.66 133.027 42.96 133.027 42.16H135.467C135.521 42.76 135.754 43.2533 136.167 43.64C136.594 44.0267 137.187 44.22 137.947 44.22C138.734 44.22 139.347 44.0333 139.787 43.66C140.227 43.2733 140.447 42.78 140.447 42.18C140.447 41.7133 140.307 41.3333 140.027 41.04C139.761 40.7467 139.421 40.52 139.007 40.36C138.607 40.2 138.047 40.0267 137.327 39.84C136.421 39.6 135.681 39.36 135.107 39.12C134.547 38.8667 134.067 38.48 133.667 37.96C133.267 37.44 133.067 36.7467 133.067 35.88C133.067 35.08 133.267 34.38 133.667 33.78C134.067 33.18 134.627 32.72 135.347 32.4C136.067 32.08 136.901 31.92 137.847 31.92C139.194 31.92 140.294 32.26 141.147 32.94C142.014 33.6067 142.494 34.5267 142.587 35.7H140.067C140.027 35.1933 139.787 34.76 139.347 34.4C138.907 34.04 138.327 33.86 137.607 33.86C136.954 33.86 136.421 34.0267 136.007 34.36C135.594 34.6933 135.387 35.1733 135.387 35.8C135.387 36.2267 135.514 36.58 135.767 36.86C136.034 37.1267 136.367 37.34 136.767 37.5C137.167 37.66 137.714 37.8333 138.407 38.02C139.327 38.2733 140.074 38.5267 140.647 38.78C141.234 39.0333 141.727 39.4267 142.127 39.96C142.541 40.48 142.747 41.18 142.747 42.06C142.747 42.7667 142.554 43.4333 142.167 44.06C141.794 44.6867 141.241 45.1933 140.507 45.58C139.787 45.9533 138.934 46.14 137.947 46.14ZM148.098 36.84V42.94C148.098 43.3533 148.191 43.6533 148.378 43.84C148.578 44.0133 148.911 44.1 149.378 44.1H150.778V46H148.978C147.951 46 147.164 45.76 146.618 45.28C146.071 44.8 145.798 44.02 145.798 42.94V36.84H144.498V34.98H145.798V32.24H148.098V34.98H150.778V36.84H148.098ZM157.659 46.18C156.619 46.18 155.679 45.9467 154.839 45.48C153.999 45 153.339 44.3333 152.859 43.48C152.379 42.6133 152.139 41.6133 152.139 40.48C152.139 39.36 152.386 38.3667 152.879 37.5C153.372 36.6333 154.046 35.9667 154.899 35.5C155.752 35.0333 156.706 34.8 157.759 34.8C158.812 34.8 159.766 35.0333 160.619 35.5C161.472 35.9667 162.146 36.6333 162.639 37.5C163.132 38.3667 163.379 39.36 163.379 40.48C163.379 41.6 163.126 42.5933 162.619 43.46C162.112 44.3267 161.419 45 160.539 45.48C159.672 45.9467 158.712 46.18 157.659 46.18ZM157.659 44.2C158.246 44.2 158.792 44.06 159.299 43.78C159.819 43.5 160.239 43.08 160.559 42.52C160.879 41.96 161.039 41.28 161.039 40.48C161.039 39.68 160.886 39.0067 160.579 38.46C160.272 37.9 159.866 37.48 159.359 37.2C158.852 36.92 158.306 36.78 157.719 36.78C157.132 36.78 156.586 36.92 156.079 37.2C155.586 37.48 155.192 37.9 154.899 38.46C154.606 39.0067 154.459 39.68 154.459 40.48C154.459 41.6667 154.759 42.5867 155.359 43.24C155.972 43.88 156.739 44.2 157.659 44.2ZM167.913 36.58C168.246 36.02 168.686 35.5867 169.233 35.28C169.793 34.96 170.453 34.8 171.213 34.8V37.16H170.633C169.739 37.16 169.059 37.3867 168.593 37.84C168.139 38.2933 167.913 39.08 167.913 40.2V46H165.633V34.98H167.913V36.58ZM183.409 40.22C183.409 40.6333 183.382 41.0067 183.329 41.34H174.909C174.975 42.22 175.302 42.9267 175.889 43.46C176.475 43.9933 177.195 44.26 178.049 44.26C179.275 44.26 180.142 43.7467 180.649 42.72H183.109C182.775 43.7333 182.169 44.5667 181.289 45.22C180.422 45.86 179.342 46.18 178.049 46.18C176.995 46.18 176.049 45.9467 175.209 45.48C174.382 45 173.729 44.3333 173.249 43.48C172.782 42.6133 172.549 41.6133 172.549 40.48C172.549 39.3467 172.775 38.3533 173.229 37.5C173.695 36.6333 174.342 35.9667 175.169 35.5C176.009 35.0333 176.969 34.8 178.049 34.8C179.089 34.8 180.015 35.0267 180.829 35.48C181.642 35.9333 182.275 36.5733 182.729 37.4C183.182 38.2133 183.409 39.1533 183.409 40.22ZM181.029 39.5C181.015 38.66 180.715 37.9867 180.129 37.48C179.542 36.9733 178.815 36.72 177.949 36.72C177.162 36.72 176.489 36.9733 175.929 37.48C175.369 37.9733 175.035 38.6467 174.929 39.5H181.029Z" fill="#F3F3F3"/>
<defs>
<clipPath id="clip0_307_26728">
<rect width="44" height="44" fill="white" transform="translate(16 8)"/>
</clipPath>
</defs>
</svg>
