<svg width="208" height="60" viewBox="0 0 208 60" fill="none" xmlns="http://www.w3.org/2000/svg">
<rect width="208" height="60" rx="8" fill="#1A1A1A"/>
<path d="M43.413 29.9999L24.8238 49.7303C23.057 49.4759 21.8848 47.8517 21.8848 45.1748V14.8251C21.8848 12.1481 23.057 10.5239 24.8238 10.2695L43.413 29.9999Z" fill="#4771B7"/>
<path d="M51.4413 34.1097L48.8391 35.7597L43.4121 30.0001L48.8391 24.2397L51.4413 25.8897C55.0068 28.1508 55.0068 31.8495 51.4413 34.1097Z" fill="#E2AB25"/>
<path d="M48.8403 35.7595L28.3674 48.7404C27.062 49.568 25.8443 49.8773 24.8242 49.7304L43.4134 30L48.8403 35.7595Z" fill="#EA4335"/>
<path d="M48.8403 24.2396L43.4134 30L24.8242 10.2696C25.8443 10.1227 27.062 10.432 28.3674 11.2596L48.8403 24.2396Z" fill="#33A851"/>
<path d="M75.26 13.06C75.028 12.572 74.692 12.196 74.252 11.932C73.812 11.66 73.3 11.524 72.716 11.524C72.132 11.524 71.604 11.66 71.132 11.932C70.668 12.196 70.3 12.58 70.028 13.084C69.764 13.58 69.632 14.156 69.632 14.812C69.632 15.468 69.764 16.044 70.028 16.54C70.3 17.036 70.668 17.42 71.132 17.692C71.604 17.956 72.132 18.088 72.716 18.088C73.532 18.088 74.204 17.844 74.732 17.356C75.26 16.868 75.568 16.208 75.656 15.376H72.32V14.488H76.82V15.328C76.756 16.016 76.54 16.648 76.172 17.224C75.804 17.792 75.32 18.244 74.72 18.58C74.12 18.908 73.452 19.072 72.716 19.072C71.94 19.072 71.232 18.892 70.592 18.532C69.952 18.164 69.444 17.656 69.068 17.008C68.7 16.36 68.516 15.628 68.516 14.812C68.516 13.996 68.7 13.264 69.068 12.616C69.444 11.96 69.952 11.452 70.592 11.092C71.232 10.724 71.94 10.54 72.716 10.54C73.604 10.54 74.388 10.76 75.068 11.2C75.756 11.64 76.256 12.26 76.568 13.06H75.26ZM84.2638 15.46C84.2638 15.668 84.2518 15.888 84.2278 16.12H78.9718C79.0118 16.768 79.2318 17.276 79.6318 17.644C80.0398 18.004 80.5318 18.184 81.1078 18.184C81.5798 18.184 81.9718 18.076 82.2838 17.86C82.6038 17.636 82.8278 17.34 82.9558 16.972H84.1318C83.9558 17.604 83.6038 18.12 83.0758 18.52C82.5478 18.912 81.8918 19.108 81.1078 19.108C80.4838 19.108 79.9238 18.968 79.4278 18.688C78.9398 18.408 78.5558 18.012 78.2758 17.5C77.9958 16.98 77.8558 16.38 77.8558 15.7C77.8558 15.02 77.9918 14.424 78.2638 13.912C78.5358 13.4 78.9158 13.008 79.4038 12.736C79.8998 12.456 80.4678 12.316 81.1078 12.316C81.7318 12.316 82.2838 12.452 82.7638 12.724C83.2438 12.996 83.6118 13.372 83.8678 13.852C84.1318 14.324 84.2638 14.86 84.2638 15.46ZM83.1358 15.232C83.1358 14.816 83.0438 14.46 82.8598 14.164C82.6758 13.86 82.4238 13.632 82.1038 13.48C81.7918 13.32 81.4438 13.24 81.0598 13.24C80.5078 13.24 80.0358 13.416 79.6438 13.768C79.2598 14.12 79.0398 14.608 78.9838 15.232H83.1358ZM87.0373 13.324V17.2C87.0373 17.52 87.1053 17.748 87.2413 17.884C87.3773 18.012 87.6133 18.076 87.9492 18.076H88.7533V19H87.7693C87.1613 19 86.7053 18.86 86.4013 18.58C86.0973 18.3 85.9453 17.84 85.9453 17.2V13.324H85.0933V12.424H85.9453V10.768H87.0373V12.424H88.7533V13.324H87.0373ZM93.8396 11.356C93.6316 11.356 93.4556 11.284 93.3116 11.14C93.1676 10.996 93.0956 10.82 93.0956 10.612C93.0956 10.404 93.1676 10.228 93.3116 10.084C93.4556 9.94 93.6316 9.868 93.8396 9.868C94.0396 9.868 94.2076 9.94 94.3436 10.084C94.4876 10.228 94.5596 10.404 94.5596 10.612C94.5596 10.82 94.4876 10.996 94.3436 11.14C94.2076 11.284 94.0396 11.356 93.8396 11.356ZM94.3676 12.424V19H93.2756V12.424H94.3676ZM97.5607 13.324V17.2C97.5607 17.52 97.6287 17.748 97.7647 17.884C97.9007 18.012 98.1367 18.076 98.4727 18.076H99.2767V19H98.2927C97.6847 19 97.2287 18.86 96.9247 18.58C96.6207 18.3 96.4687 17.84 96.4687 17.2V13.324H95.6167V12.424H96.4687V10.768H97.5607V12.424H99.2767V13.324H97.5607ZM106.667 19.108C106.051 19.108 105.491 18.968 104.987 18.688C104.491 18.408 104.099 18.012 103.811 17.5C103.531 16.98 103.391 16.38 103.391 15.7C103.391 15.028 103.535 14.436 103.823 13.924C104.119 13.404 104.519 13.008 105.023 12.736C105.527 12.456 106.091 12.316 106.715 12.316C107.339 12.316 107.903 12.456 108.407 12.736C108.911 13.008 109.307 13.4 109.595 13.912C109.891 14.424 110.039 15.02 110.039 15.7C110.039 16.38 109.887 16.98 109.583 17.5C109.287 18.012 108.883 18.408 108.371 18.688C107.859 18.968 107.291 19.108 106.667 19.108ZM106.667 18.148C107.059 18.148 107.427 18.056 107.771 17.872C108.115 17.688 108.391 17.412 108.599 17.044C108.815 16.676 108.923 16.228 108.923 15.7C108.923 15.172 108.819 14.724 108.611 14.356C108.403 13.988 108.131 13.716 107.795 13.54C107.459 13.356 107.095 13.264 106.703 13.264C106.303 13.264 105.935 13.356 105.599 13.54C105.271 13.716 105.007 13.988 104.807 14.356C104.607 14.724 104.507 15.172 104.507 15.7C104.507 16.236 104.603 16.688 104.795 17.056C104.995 17.424 105.259 17.7 105.587 17.884C105.915 18.06 106.275 18.148 106.667 18.148ZM114.679 12.304C115.479 12.304 116.127 12.548 116.623 13.036C117.119 13.516 117.367 14.212 117.367 15.124V19H116.287V15.28C116.287 14.624 116.123 14.124 115.795 13.78C115.467 13.428 115.019 13.252 114.451 13.252C113.875 13.252 113.415 13.432 113.071 13.792C112.735 14.152 112.567 14.676 112.567 15.364V19H111.475V12.424H112.567V13.36C112.783 13.024 113.075 12.764 113.443 12.58C113.819 12.396 114.231 12.304 114.679 12.304Z" fill="#F3F3F3"/>
<path d="M79.56 36.1C79.2 35.4067 78.7 34.8867 78.06 34.54C77.42 34.18 76.68 34 75.84 34C74.92 34 74.1 34.2067 73.38 34.62C72.66 35.0333 72.0933 35.62 71.68 36.38C71.28 37.14 71.08 38.02 71.08 39.02C71.08 40.02 71.28 40.9067 71.68 41.68C72.0933 42.44 72.66 43.0267 73.38 43.44C74.1 43.8533 74.92 44.06 75.84 44.06C77.08 44.06 78.0867 43.7133 78.86 43.02C79.6333 42.3267 80.1067 41.3867 80.28 40.2H75.06V38.38H82.72V40.16C82.5733 41.24 82.1867 42.2333 81.56 43.14C80.9467 44.0467 80.14 44.7733 79.14 45.32C78.1533 45.8533 77.0533 46.12 75.84 46.12C74.5333 46.12 73.34 45.82 72.26 45.22C71.18 44.6067 70.32 43.76 69.68 42.68C69.0533 41.6 68.74 40.38 68.74 39.02C68.74 37.66 69.0533 36.44 69.68 35.36C70.32 34.28 71.18 33.44 72.26 32.84C73.3533 32.2267 74.5467 31.92 75.84 31.92C77.32 31.92 78.6333 32.2867 79.78 33.02C80.94 33.74 81.78 34.7667 82.3 36.1H79.56ZM89.7488 46.18C88.7088 46.18 87.7688 45.9467 86.9288 45.48C86.0888 45 85.4288 44.3333 84.9488 43.48C84.4688 42.6133 84.2288 41.6133 84.2288 40.48C84.2288 39.36 84.4754 38.3667 84.9688 37.5C85.4621 36.6333 86.1354 35.9667 86.9888 35.5C87.8421 35.0333 88.7954 34.8 89.8488 34.8C90.9021 34.8 91.8554 35.0333 92.7088 35.5C93.5621 35.9667 94.2354 36.6333 94.7288 37.5C95.2221 38.3667 95.4688 39.36 95.4688 40.48C95.4688 41.6 95.2154 42.5933 94.7088 43.46C94.2021 44.3267 93.5088 45 92.6288 45.48C91.7621 45.9467 90.8021 46.18 89.7488 46.18ZM89.7488 44.2C90.3354 44.2 90.8821 44.06 91.3888 43.78C91.9088 43.5 92.3288 43.08 92.6488 42.52C92.9688 41.96 93.1288 41.28 93.1288 40.48C93.1288 39.68 92.9754 39.0067 92.6688 38.46C92.3621 37.9 91.9554 37.48 91.4488 37.2C90.9421 36.92 90.3954 36.78 89.8088 36.78C89.2221 36.78 88.6754 36.92 88.1688 37.2C87.6754 37.48 87.2821 37.9 86.9888 38.46C86.6954 39.0067 86.5488 39.68 86.5488 40.48C86.5488 41.6667 86.8488 42.5867 87.4488 43.24C88.0621 43.88 88.8288 44.2 89.7488 44.2ZM102.503 46.18C101.463 46.18 100.523 45.9467 99.6827 45.48C98.8427 45 98.1827 44.3333 97.7027 43.48C97.2227 42.6133 96.9827 41.6133 96.9827 40.48C96.9827 39.36 97.2293 38.3667 97.7227 37.5C98.216 36.6333 98.8893 35.9667 99.7427 35.5C100.596 35.0333 101.549 34.8 102.603 34.8C103.656 34.8 104.609 35.0333 105.463 35.5C106.316 35.9667 106.989 36.6333 107.483 37.5C107.976 38.3667 108.223 39.36 108.223 40.48C108.223 41.6 107.969 42.5933 107.463 43.46C106.956 44.3267 106.263 45 105.383 45.48C104.516 45.9467 103.556 46.18 102.503 46.18ZM102.503 44.2C103.089 44.2 103.636 44.06 104.143 43.78C104.663 43.5 105.083 43.08 105.403 42.52C105.723 41.96 105.883 41.28 105.883 40.48C105.883 39.68 105.729 39.0067 105.423 38.46C105.116 37.9 104.709 37.48 104.203 37.2C103.696 36.92 103.149 36.78 102.563 36.78C101.976 36.78 101.429 36.92 100.923 37.2C100.429 37.48 100.036 37.9 99.7427 38.46C99.4493 39.0067 99.3027 39.68 99.3027 40.48C99.3027 41.6667 99.6027 42.5867 100.203 43.24C100.816 43.88 101.583 44.2 102.503 44.2ZM114.917 34.8C115.77 34.8 116.523 34.9733 117.177 35.32C117.843 35.6533 118.363 36.0733 118.737 36.58V34.98H121.037V46.18C121.037 47.1933 120.823 48.0933 120.397 48.88C119.97 49.68 119.35 50.3067 118.537 50.76C117.737 51.2133 116.777 51.44 115.657 51.44C114.163 51.44 112.923 51.0867 111.937 50.38C110.95 49.6867 110.39 48.74 110.257 47.54H112.517C112.69 48.1133 113.057 48.5733 113.617 48.92C114.19 49.28 114.87 49.46 115.657 49.46C116.577 49.46 117.317 49.18 117.877 48.62C118.45 48.06 118.737 47.2467 118.737 46.18V44.34C118.35 44.86 117.823 45.3 117.157 45.66C116.503 46.0067 115.757 46.18 114.917 46.18C113.957 46.18 113.077 45.94 112.277 45.46C111.49 44.9667 110.863 44.2867 110.397 43.42C109.943 42.54 109.717 41.5467 109.717 40.44C109.717 39.3333 109.943 38.3533 110.397 37.5C110.863 36.6467 111.49 35.9867 112.277 35.52C113.077 35.04 113.957 34.8 114.917 34.8ZM118.737 40.48C118.737 39.72 118.577 39.06 118.257 38.5C117.95 37.94 117.543 37.5133 117.037 37.22C116.53 36.9267 115.983 36.78 115.397 36.78C114.81 36.78 114.263 36.9267 113.757 37.22C113.25 37.5 112.837 37.92 112.517 38.48C112.21 39.0267 112.057 39.68 112.057 40.44C112.057 41.2 112.21 41.8667 112.517 42.44C112.837 43.0133 113.25 43.4533 113.757 43.76C114.277 44.0533 114.823 44.2 115.397 44.2C115.983 44.2 116.53 44.0533 117.037 43.76C117.543 43.4667 117.95 43.04 118.257 42.48C118.577 41.9067 118.737 41.24 118.737 40.48ZM126.311 31.2V46H124.031V31.2H126.311ZM139.405 40.22C139.405 40.6333 139.378 41.0067 139.325 41.34H130.905C130.971 42.22 131.298 42.9267 131.885 43.46C132.471 43.9933 133.191 44.26 134.045 44.26C135.271 44.26 136.138 43.7467 136.645 42.72H139.105C138.771 43.7333 138.165 44.5667 137.285 45.22C136.418 45.86 135.338 46.18 134.045 46.18C132.991 46.18 132.045 45.9467 131.205 45.48C130.378 45 129.725 44.3333 129.245 43.48C128.778 42.6133 128.545 41.6133 128.545 40.48C128.545 39.3467 128.771 38.3533 129.225 37.5C129.691 36.6333 130.338 35.9667 131.165 35.5C132.005 35.0333 132.965 34.8 134.045 34.8C135.085 34.8 136.011 35.0267 136.825 35.48C137.638 35.9333 138.271 36.5733 138.725 37.4C139.178 38.2133 139.405 39.1533 139.405 40.22ZM137.025 39.5C137.011 38.66 136.711 37.9867 136.125 37.48C135.538 36.9733 134.811 36.72 133.945 36.72C133.158 36.72 132.485 36.9733 131.925 37.48C131.365 37.9733 131.031 38.6467 130.925 39.5H137.025ZM156.564 36.24C156.564 36.9467 156.397 37.6133 156.064 38.24C155.73 38.8667 155.197 39.38 154.464 39.78C153.73 40.1667 152.79 40.36 151.644 40.36H149.124V46H146.844V32.1H151.644C152.71 32.1 153.61 32.2867 154.344 32.66C155.09 33.02 155.644 33.5133 156.004 34.14C156.377 34.7667 156.564 35.4667 156.564 36.24ZM151.644 38.5C152.51 38.5 153.157 38.3067 153.584 37.92C154.01 37.52 154.224 36.96 154.224 36.24C154.224 34.72 153.364 33.96 151.644 33.96H149.124V38.5H151.644ZM161.018 31.2V46H158.738V31.2H161.018ZM163.252 40.44C163.252 39.3333 163.478 38.3533 163.932 37.5C164.398 36.6467 165.025 35.9867 165.812 35.52C166.612 35.04 167.492 34.8 168.452 34.8C169.318 34.8 170.072 34.9733 170.712 35.32C171.365 35.6533 171.885 36.0733 172.272 36.58V34.98H174.572V46H172.272V44.36C171.885 44.88 171.358 45.3133 170.692 45.66C170.025 46.0067 169.265 46.18 168.412 46.18C167.465 46.18 166.598 45.94 165.812 45.46C165.025 44.9667 164.398 44.2867 163.932 43.42C163.478 42.54 163.252 41.5467 163.252 40.44ZM172.272 40.48C172.272 39.72 172.112 39.06 171.792 38.5C171.485 37.94 171.078 37.5133 170.572 37.22C170.065 36.9267 169.518 36.78 168.932 36.78C168.345 36.78 167.798 36.9267 167.292 37.22C166.785 37.5 166.372 37.92 166.052 38.48C165.745 39.0267 165.592 39.68 165.592 40.44C165.592 41.2 165.745 41.8667 166.052 42.44C166.372 43.0133 166.785 43.4533 167.292 43.76C167.812 44.0533 168.358 44.2 168.932 44.2C169.518 44.2 170.065 44.0533 170.572 43.76C171.078 43.4667 171.485 43.04 171.792 42.48C172.112 41.9067 172.272 41.24 172.272 40.48ZM187.486 34.98L180.726 51.18H178.366L180.606 45.82L176.266 34.98H178.806L181.906 43.38L185.126 34.98H187.486Z" fill="#F3F3F3"/>
</svg>
