<?xml version="1.0" encoding="utf-8"?>
<!-- Generator: Adobe Illustrator 28.0.0, SVG Export Plug-In . SVG Version: 6.00 Build 0)  -->
<svg version="1.1" id="Layer_1" xmlns="http://www.w3.org/2000/svg" xmlns:xlink="http://www.w3.org/1999/xlink" x="0px" y="0px"
	 viewBox="0 0 500 500" style="enable-background:new 0 0 500 500;" xml:space="preserve">
<style type="text/css">
	.st0{filter:url(#Adobe_OpacityMaskFilter);}
	.st1{mask:url(#SVGID_1_);fill:url(#SVGID_00000181797102525723581700000002612490869973941916_);}
	.st2{filter:url(#Adobe_OpacityMaskFilter_00000117669718877591393640000013397882158594030267_);}
	
		.st3{mask:url(#SVGID_00000045601448691307688220000011809474235605290668_);fill:url(#SVGID_00000104663902799238822150000013049767789687168924_);}
	.st4{fill:url(#SVGID_00000074428271694907389180000014125628130911375008_);}
	.st5{fill:url(#SVGID_00000026879208595789280530000002941181880991651769_);}
	.st6{fill:url(#SVGID_00000067916663217408030290000003805787527504150667_);}
	.st7{fill:url(#SVGID_00000137134551251435072730000010355135501314983609_);}
	.st8{filter:url(#Adobe_OpacityMaskFilter_00000127004806043179043260000010660806648069644699_);}
	
		.st9{mask:url(#SVGID_00000031919017348783262090000009476964264876814759_);fill:url(#SVGID_00000003105343080796636930000006640589711829637522_);}
	.st10{fill:url(#SVGID_00000155145406184424458020000001755260774000774319_);}
	.st11{fill:url(#SVGID_00000150072341120319847400000015792486787060598172_);}
	.st12{fill:url(#SVGID_00000035532297281865364280000015939953965156125853_);}
	.st13{fill:url(#SVGID_00000044178007799377406290000004985082707196956808_);}
	.st14{filter:url(#Adobe_OpacityMaskFilter_00000005248484451227875930000001513358149570519706_);}
	
		.st15{mask:url(#SVGID_00000065037205045721961480000015978873913734073789_);fill:url(#SVGID_00000090973866759774939590000010486388494594068099_);}
</style>
<g>
	<defs>
		<filter id="Adobe_OpacityMaskFilter" filterUnits="userSpaceOnUse" x="58.31" y="58.31" width="383.38" height="383.38">
			<feFlood  style="flood-color:white;flood-opacity:1" result="back"/>
			<feBlend  in="SourceGraphic" in2="back" mode="normal"/>
		</filter>
	</defs>
	<mask maskUnits="userSpaceOnUse" x="58.31" y="58.31" width="383.38" height="383.38" id="SVGID_1_">
		<g class="st0">
			<g>
				<path d="M188.68,259.43c3.16-9.63,8.46-17.66,15.76-23.87c2.16-1.84,4.56-3.47,7.09-5.01h-64.38v-58.43H115.4v58.43H56.97v31.75
					h58.43v58.43h31.75v-58.43h40.74C188.16,261.34,188.38,260.35,188.68,259.43z"/>
				<path d="M249.04,270.34c4.01-2.67,10.69-4.01,20.05-4.01h71.61c11.64,0,21.38-0.95,29.21-2.87c7.83-1.9,14.13-4.87,18.9-8.88
					c4.77-4.01,8.16-9.02,10.17-15.04c2-6.01,3.01-13.13,3.01-21.34v-12.32c0-18.9-4.92-32.7-14.75-41.39
					c-9.84-8.69-26.49-13.03-49.98-13.03H215.53v38.95h121.73c5.34,0,9.69,0.29,13.03,0.86c3.34,0.57,5.92,1.72,7.73,3.44
					c1.81,1.72,3.01,4.01,3.58,6.87c0.57,2.86,0.86,6.59,0.86,11.17c0,4.01-0.29,7.35-0.86,10.02c-0.57,2.68-1.77,4.87-3.58,6.59
					c-1.82,1.72-4.3,2.91-7.45,3.58c-3.15,0.67-7.3,1-12.46,1h-69.03c-12.22,0-22.48,1.1-30.79,3.29
					c-8.31,2.2-15.04,5.49-20.19,9.88c-5.16,4.4-8.88,10.07-11.17,17.04c-2.29,6.97-3.44,15.14-3.44,24.49v59.86h247.39v-38.67
					H243.02V285.8C243.02,278.17,245.03,273.01,249.04,270.34z"/>
			</g>
		</g>
	</mask>
	
		<linearGradient id="SVGID_00000098213871239068717750000014054726781950582936_" gradientUnits="userSpaceOnUse" x1="157.2242" y1="137.1752" x2="368.5758" y2="394.2002">
		<stop  offset="0" style="stop-color:#00E97A"/>
		<stop  offset="0.2452" style="stop-color:#00DB71"/>
		<stop  offset="0.7099" style="stop-color:#00B55A"/>
		<stop  offset="0.9835" style="stop-color:#009C4A"/>
	</linearGradient>
	
		<circle style="mask:url(#SVGID_1_);fill:url(#SVGID_00000098213871239068717750000014054726781950582936_);" cx="250" cy="250" r="191.69"/>
</g>
</svg>
